<svg xmlns="http://www.w3.org/2000/svg" width="31" height="31" fill="none" viewBox="0 0 31 31">
  <path fill="#FFC300" d="M26.548.97c-1.305-1.165-2.886-.697-4.445.689a10.12 10.12 0 0 0-.691.678c-.36.382-.716.81-1.067 1.271a3.09 3.09 0 0 0-1.175-.232H6.228a3.117 3.117 0 0 0-3.11 3.11v12.936a3.117 3.117 0 0 0 3.11 3.109h9.101c.109.604.174 1.032.174 1.032s.01.112.022.285a28.56 28.56 0 0 0 .071 3.479c.121 1.45.347 2.696.633 3.363l.195-.105c-.422-1.315-.595-3.035-.518-5.022.115-3.035.812-6.696 2.102-10.512 2.18-5.76 5.205-10.382 7.976-12.59-2.523 2.279-5.94 9.657-6.962 12.388-1.144 3.06-1.956 5.93-2.446 8.68.843-2.58 3.57-3.686 3.57-3.686s1.34-1.65 2.902-4.008c-.936.214-2.473.58-2.988.796-.76.32-.964.428-.964.428s2.461-1.497 4.573-2.176c2.901-4.572 6.066-11.07 2.88-13.913ZM15.494 14.415c.3.608.533 1.383.688 1.978.04.152.074.294.102.415.069.288.106.474.106.474s-.025-.09-.121-.375l-.065-.186-.04-.102c-.174-.403-.655-1.258-.869-1.63-.18.533-.34 1.035-.474 1.488.61 1.119.986 3.038.986 3.038s-.031-.125-.186-.559c-.136-.384-.815-1.574-.977-1.853-.276 1.016-.384 1.702-.285 1.872.146.245.285.626.416 1.07H6.228a.631.631 0 0 1-.623-.623V6.482a.63.63 0 0 1 .623-.623h12.617c-1.572 2.688-2.84 5.896-3.351 8.556Z"/>
</svg>
