<svg xmlns="http://www.w3.org/2000/svg" width="26" height="30" fill="none" viewBox="0 0 26 30">
  <g clip-path="url(#a)">
    <path fill="#FFC300" d="m5.43 22.459-2.176-1.375c.415-1.362 3.822-7.54 5.858-7.367-1.18 3.124-1.841 5.907-3.681 8.742Zm4.28-7.375c-.974 2.945-2.066 5.672-3.441 7.876l6.589 3.858 10.413-6.07V15.12c-1.009.111-1.624.686-1.961 1.618-.52 1.437-2.611 3.137-4.298.846-2.68 4.325-5.194 3.582-7.301-2.5Zm-.925-2.198c-1.72-3.722-4.988-3.77-6.387 1.78v5.823c.97-1.763 4.025-7.385 6.387-7.603Zm13.99 1.365c-1.748-1.327-4.36.288-5.367 2.623.943 1.573 1.89 1.249 2.69.487.643-.613.867-2.483 2.677-3.11Zm-7.605.102c-1.632-3.16-3.014-5.622-4.793-1.008 1.474 1.168 3.24 2.352 4.793 1.008Zm1.401 2.598a18.532 18.532 0 0 1-1.02-1.843c-1.55 1.237-3.516.637-5.48-.973 1.204 3.135 2.147 4.876 3.09 5.347 1.064.533 2.502-.701 3.41-2.53ZM1.751 8.512v12.976l11.106 6.487 11.107-6.487V8.512L12.857 2.025 1.75 8.512ZM25.713 7.5v15L12.857 30 0 22.5v-15L12.857 0l12.857 7.5Zm-2.443 5.675c-1.913-2.92-3.523-3.091-4.702-2.249-1.073.767-1.804 2.593-2.389 3.555.26.59.505.918.789 1.462 1.37-2.638 3.916-4.184 6.302-2.388v-.38Z"/>
  </g>
  <defs>
    <clipPath id="a">
      <path fill="#fff" d="M0 0h25.714v30H0z"/>
    </clipPath>
  </defs>
</svg>
